<?xml version="1.0" standalone="no"?>
<svg xmlns="http://www.w3.org/2000/svg" width="640" height="640"><defs><clipPath id="clip-path-dot-color"><rect x="7" y="232" width="25" height="25" transform="rotate(0,19.5,244.5)"/><rect x="7" y="332" width="25" height="25" transform="rotate(0,19.5,344.5)"/><rect x="7" y="382" width="25" height="25" transform="rotate(0,19.5,394.5)"/><rect x="32" y="232" width="25" height="25" transform="rotate(0,44.5,244.5)"/><rect x="32" y="307" width="25" height="25" transform="rotate(0,44.5,319.5)"/><rect x="32" y="382" width="25" height="25" transform="rotate(0,44.5,394.5)"/><rect x="32" y="407" width="25" height="25" transform="rotate(0,44.5,419.5)"/><rect x="82" y="257" width="25" height="25" transform="rotate(0,94.5,269.5)"/><rect x="82" y="332" width="25" height="25" transform="rotate(0,94.5,344.5)"/><rect x="82" y="357" width="25" height="25" transform="rotate(0,94.5,369.5)"/><rect x="82" y="382" width="25" height="25" transform="rotate(0,94.5,394.5)"/><rect x="82" y="407" width="25" height="25" transform="rotate(0,94.5,419.5)"/><rect x="107" y="232" width="25" height="25" transform="rotate(0,119.5,244.5)"/><rect x="107" y="257" width="25" height="25" transform="rotate(0,119.5,269.5)"/><rect x="107" y="307" width="25" height="25" transform="rotate(0,119.5,319.5)"/><rect x="107" y="332" width="25" height="25" transform="rotate(0,119.5,344.5)"/><rect x="107" y="407" width="25" height="25" transform="rotate(0,119.5,419.5)"/><rect x="132" y="207" width="25" height="25" transform="rotate(0,144.5,219.5)"/><rect x="132" y="332" width="25" height="25" transform="rotate(0,144.5,344.5)"/><rect x="132" y="357" width="25" height="25" transform="rotate(0,144.5,369.5)"/><rect x="132" y="382" width="25" height="25" transform="rotate(0,144.5,394.5)"/><rect x="157" y="207" width="25" height="25" transform="rotate(0,169.5,219.5)"/><rect x="157" y="257" width="25" height="25" transform="rotate(0,169.5,269.5)"/><rect x="157" y="307" width="25" height="25" transform="rotate(0,169.5,319.5)"/><rect x="157" y="357" width="25" height="25" transform="rotate(0,169.5,369.5)"/><rect x="157" y="407" width="25" height="25" transform="rotate(0,169.5,419.5)"/><rect x="182" y="357" width="25" height="25" transform="rotate(0,194.5,369.5)"/><rect x="182" y="382" width="25" height="25" transform="rotate(0,194.5,394.5)"/><rect x="182" y="407" width="25" height="25" transform="rotate(0,194.5,419.5)"/><rect x="207" y="7" width="25" height="25" transform="rotate(0,219.5,19.5)"/><rect x="207" y="82" width="25" height="25" transform="rotate(0,219.5,94.5)"/><rect x="207" y="132" width="25" height="25" transform="rotate(0,219.5,144.5)"/><rect x="207" y="157" width="25" height="25" transform="rotate(0,219.5,169.5)"/><rect x="207" y="207" width="25" height="25" transform="rotate(0,219.5,219.5)"/><rect x="207" y="257" width="25" height="25" transform="rotate(0,219.5,269.5)"/><rect x="207" y="307" width="25" height="25" transform="rotate(0,219.5,319.5)"/><rect x="207" y="357" width="25" height="25" transform="rotate(0,219.5,369.5)"/><rect x="207" y="432" width="25" height="25" transform="rotate(0,219.5,444.5)"/><rect x="207" y="482" width="25" height="25" transform="rotate(0,219.5,494.5)"/><rect x="232" y="7" width="25" height="25" transform="rotate(0,244.5,19.5)"/><rect x="232" y="57" width="25" height="25" transform="rotate(0,244.5,69.5)"/><rect x="232" y="107" width="25" height="25" transform="rotate(0,244.5,119.5)"/><rect x="232" y="182" width="25" height="25" transform="rotate(0,244.5,194.5)"/><rect x="232" y="257" width="25" height="25" transform="rotate(0,244.5,269.5)"/><rect x="232" y="382" width="25" height="25" transform="rotate(0,244.5,394.5)"/><rect x="232" y="407" width="25" height="25" transform="rotate(0,244.5,419.5)"/><rect x="232" y="432" width="25" height="25" transform="rotate(0,244.5,444.5)"/><rect x="232" y="457" width="25" height="25" transform="rotate(0,244.5,469.5)"/><rect x="232" y="482" width="25" height="25" transform="rotate(0,244.5,494.5)"/><rect x="232" y="607" width="25" height="25" transform="rotate(0,244.5,619.5)"/><rect x="257" y="32" width="25" height="25" transform="rotate(0,269.5,44.5)"/><rect x="257" y="107" width="25" height="25" transform="rotate(0,269.5,119.5)"/><rect x="257" y="157" width="25" height="25" transform="rotate(0,269.5,169.5)"/><rect x="257" y="232" width="25" height="25" transform="rotate(0,269.5,244.5)"/><rect x="257" y="407" width="25" height="25" transform="rotate(0,269.5,419.5)"/><rect x="257" y="432" width="25" height="25" transform="rotate(0,269.5,444.5)"/><rect x="257" y="507" width="25" height="25" transform="rotate(0,269.5,519.5)"/><rect x="257" y="582" width="25" height="25" transform="rotate(0,269.5,594.5)"/><rect x="257" y="607" width="25" height="25" transform="rotate(0,269.5,619.5)"/><rect x="282" y="32" width="25" height="25" transform="rotate(0,294.5,44.5)"/><rect x="282" y="57" width="25" height="25" transform="rotate(0,294.5,69.5)"/><rect x="282" y="82" width="25" height="25" transform="rotate(0,294.5,94.5)"/><rect x="282" y="232" width="25" height="25" transform="rotate(0,294.5,244.5)"/><rect x="282" y="407" width="25" height="25" transform="rotate(0,294.5,419.5)"/><rect x="282" y="457" width="25" height="25" transform="rotate(0,294.5,469.5)"/><rect x="282" y="482" width="25" height="25" transform="rotate(0,294.5,494.5)"/><rect x="282" y="507" width="25" height="25" transform="rotate(0,294.5,519.5)"/><rect x="307" y="32" width="25" height="25" transform="rotate(0,319.5,44.5)"/><rect x="307" y="57" width="25" height="25" transform="rotate(0,319.5,69.5)"/><rect x="307" y="82" width="25" height="25" transform="rotate(0,319.5,94.5)"/><rect x="307" y="157" width="25" height="25" transform="rotate(0,319.5,169.5)"/><rect x="307" y="182" width="25" height="25" transform="rotate(0,319.5,194.5)"/><rect x="307" y="232" width="25" height="25" transform="rotate(0,319.5,244.5)"/><rect x="307" y="382" width="25" height="25" transform="rotate(0,319.5,394.5)"/><rect x="307" y="407" width="25" height="25" transform="rotate(0,319.5,419.5)"/><rect x="307" y="432" width="25" height="25" transform="rotate(0,319.5,444.5)"/><rect x="307" y="457" width="25" height="25" transform="rotate(0,319.5,469.5)"/><rect x="307" y="482" width="25" height="25" transform="rotate(0,319.5,494.5)"/><rect x="307" y="532" width="25" height="25" transform="rotate(0,319.5,544.5)"/><rect x="307" y="582" width="25" height="25" transform="rotate(0,319.5,594.5)"/><rect x="307" y="607" width="25" height="25" transform="rotate(0,319.5,619.5)"/><rect x="332" y="107" width="25" height="25" transform="rotate(0,344.5,119.5)"/><rect x="332" y="132" width="25" height="25" transform="rotate(0,344.5,144.5)"/><rect x="332" y="182" width="25" height="25" transform="rotate(0,344.5,194.5)"/><rect x="332" y="207" width="25" height="25" transform="rotate(0,344.5,219.5)"/><rect x="332" y="407" width="25" height="25" transform="rotate(0,344.5,419.5)"/><rect x="332" y="432" width="25" height="25" transform="rotate(0,344.5,444.5)"/><rect x="332" y="457" width="25" height="25" transform="rotate(0,344.5,469.5)"/><rect x="332" y="482" width="25" height="25" transform="rotate(0,344.5,494.5)"/><rect x="332" y="532" width="25" height="25" transform="rotate(0,344.5,544.5)"/><rect x="332" y="557" width="25" height="25" transform="rotate(0,344.5,569.5)"/><rect x="332" y="607" width="25" height="25" transform="rotate(0,344.5,619.5)"/><rect x="357" y="7" width="25" height="25" transform="rotate(0,369.5,19.5)"/><rect x="357" y="82" width="25" height="25" transform="rotate(0,369.5,94.5)"/><rect x="357" y="107" width="25" height="25" transform="rotate(0,369.5,119.5)"/><rect x="357" y="157" width="25" height="25" transform="rotate(0,369.5,169.5)"/><rect x="357" y="232" width="25" height="25" transform="rotate(0,369.5,244.5)"/><rect x="357" y="407" width="25" height="25" transform="rotate(0,369.5,419.5)"/><rect x="357" y="457" width="25" height="25" transform="rotate(0,369.5,469.5)"/><rect x="357" y="482" width="25" height="25" transform="rotate(0,369.5,494.5)"/><rect x="357" y="557" width="25" height="25" transform="rotate(0,369.5,569.5)"/><rect x="357" y="607" width="25" height="25" transform="rotate(0,369.5,619.5)"/><rect x="382" y="32" width="25" height="25" transform="rotate(0,394.5,44.5)"/><rect x="382" y="57" width="25" height="25" transform="rotate(0,394.5,69.5)"/><rect x="382" y="82" width="25" height="25" transform="rotate(0,394.5,94.5)"/><rect x="382" y="107" width="25" height="25" transform="rotate(0,394.5,119.5)"/><rect x="382" y="182" width="25" height="25" transform="rotate(0,394.5,194.5)"/><rect x="382" y="207" width="25" height="25" transform="rotate(0,394.5,219.5)"/><rect x="382" y="282" width="25" height="25" transform="rotate(0,394.5,294.5)"/><rect x="382" y="407" width="25" height="25" transform="rotate(0,394.5,419.5)"/><rect x="382" y="457" width="25" height="25" transform="rotate(0,394.5,469.5)"/><rect x="382" y="482" width="25" height="25" transform="rotate(0,394.5,494.5)"/><rect x="382" y="532" width="25" height="25" transform="rotate(0,394.5,544.5)"/><rect x="382" y="582" width="25" height="25" transform="rotate(0,394.5,594.5)"/><rect x="407" y="7" width="25" height="25" transform="rotate(0,419.5,19.5)"/><rect x="407" y="32" width="25" height="25" transform="rotate(0,419.5,44.5)"/><rect x="407" y="57" width="25" height="25" transform="rotate(0,419.5,69.5)"/><rect x="407" y="82" width="25" height="25" transform="rotate(0,419.5,94.5)"/><rect x="407" y="107" width="25" height="25" transform="rotate(0,419.5,119.5)"/><rect x="407" y="157" width="25" height="25" transform="rotate(0,419.5,169.5)"/><rect x="407" y="182" width="25" height="25" transform="rotate(0,419.5,194.5)"/><rect x="407" y="232" width="25" height="25" transform="rotate(0,419.5,244.5)"/><rect x="407" y="307" width="25" height="25" transform="rotate(0,419.5,319.5)"/><rect x="407" y="332" width="25" height="25" transform="rotate(0,419.5,344.5)"/><rect x="407" y="407" width="25" height="25" transform="rotate(0,419.5,419.5)"/><rect x="407" y="432" width="25" height="25" transform="rotate(0,419.5,444.5)"/><rect x="407" y="457" width="25" height="25" transform="rotate(0,419.5,469.5)"/><rect x="407" y="482" width="25" height="25" transform="rotate(0,419.5,494.5)"/><rect x="407" y="507" width="25" height="25" transform="rotate(0,419.5,519.5)"/><rect x="407" y="532" width="25" height="25" transform="rotate(0,419.5,544.5)"/><rect x="407" y="557" width="25" height="25" transform="rotate(0,419.5,569.5)"/><rect x="432" y="207" width="25" height="25" transform="rotate(0,444.5,219.5)"/><rect x="432" y="232" width="25" height="25" transform="rotate(0,444.5,244.5)"/><rect x="432" y="257" width="25" height="25" transform="rotate(0,444.5,269.5)"/><rect x="432" y="307" width="25" height="25" transform="rotate(0,444.5,319.5)"/><rect x="432" y="332" width="25" height="25" transform="rotate(0,444.5,344.5)"/><rect x="432" y="357" width="25" height="25" transform="rotate(0,444.5,369.5)"/><rect x="432" y="382" width="25" height="25" transform="rotate(0,444.5,394.5)"/><rect x="432" y="407" width="25" height="25" transform="rotate(0,444.5,419.5)"/><rect x="432" y="507" width="25" height="25" transform="rotate(0,444.5,519.5)"/><rect x="432" y="532" width="25" height="25" transform="rotate(0,444.5,544.5)"/><rect x="432" y="557" width="25" height="25" transform="rotate(0,444.5,569.5)"/><rect x="432" y="607" width="25" height="25" transform="rotate(0,444.5,619.5)"/><rect x="457" y="232" width="25" height="25" transform="rotate(0,469.5,244.5)"/><rect x="457" y="282" width="25" height="25" transform="rotate(0,469.5,294.5)"/><rect x="457" y="307" width="25" height="25" transform="rotate(0,469.5,319.5)"/><rect x="457" y="357" width="25" height="25" transform="rotate(0,469.5,369.5)"/><rect x="457" y="382" width="25" height="25" transform="rotate(0,469.5,394.5)"/><rect x="457" y="407" width="25" height="25" transform="rotate(0,469.5,419.5)"/><rect x="457" y="457" width="25" height="25" transform="rotate(0,469.5,469.5)"/><rect x="457" y="507" width="25" height="25" transform="rotate(0,469.5,519.5)"/><rect x="457" y="582" width="25" height="25" transform="rotate(0,469.5,594.5)"/><rect x="457" y="607" width="25" height="25" transform="rotate(0,469.5,619.5)"/><rect x="482" y="207" width="25" height="25" transform="rotate(0,494.5,219.5)"/><rect x="482" y="232" width="25" height="25" transform="rotate(0,494.5,244.5)"/><rect x="482" y="307" width="25" height="25" transform="rotate(0,494.5,319.5)"/><rect x="482" y="357" width="25" height="25" transform="rotate(0,494.5,369.5)"/><rect x="482" y="407" width="25" height="25" transform="rotate(0,494.5,419.5)"/><rect x="482" y="507" width="25" height="25" transform="rotate(0,494.5,519.5)"/><rect x="482" y="532" width="25" height="25" transform="rotate(0,494.5,544.5)"/><rect x="482" y="557" width="25" height="25" transform="rotate(0,494.5,569.5)"/><rect x="482" y="582" width="25" height="25" transform="rotate(0,494.5,594.5)"/><rect x="507" y="232" width="25" height="25" transform="rotate(0,519.5,244.5)"/><rect x="507" y="407" width="25" height="25" transform="rotate(0,519.5,419.5)"/><rect x="507" y="432" width="25" height="25" transform="rotate(0,519.5,444.5)"/><rect x="507" y="457" width="25" height="25" transform="rotate(0,519.5,469.5)"/><rect x="507" y="482" width="25" height="25" transform="rotate(0,519.5,494.5)"/><rect x="507" y="507" width="25" height="25" transform="rotate(0,519.5,519.5)"/><rect x="507" y="607" width="25" height="25" transform="rotate(0,519.5,619.5)"/><rect x="532" y="207" width="25" height="25" transform="rotate(0,544.5,219.5)"/><rect x="532" y="232" width="25" height="25" transform="rotate(0,544.5,244.5)"/><rect x="532" y="282" width="25" height="25" transform="rotate(0,544.5,294.5)"/><rect x="532" y="357" width="25" height="25" transform="rotate(0,544.5,369.5)"/><rect x="532" y="407" width="25" height="25" transform="rotate(0,544.5,419.5)"/><rect x="532" y="482" width="25" height="25" transform="rotate(0,544.5,494.5)"/><rect x="532" y="507" width="25" height="25" transform="rotate(0,544.5,519.5)"/><rect x="532" y="557" width="25" height="25" transform="rotate(0,544.5,569.5)"/><rect x="557" y="257" width="25" height="25" transform="rotate(0,569.5,269.5)"/><rect x="557" y="382" width="25" height="25" transform="rotate(0,569.5,394.5)"/><rect x="557" y="407" width="25" height="25" transform="rotate(0,569.5,419.5)"/><rect x="557" y="432" width="25" height="25" transform="rotate(0,569.5,444.5)"/><rect x="557" y="507" width="25" height="25" transform="rotate(0,569.5,519.5)"/><rect x="557" y="532" width="25" height="25" transform="rotate(0,569.5,544.5)"/><rect x="557" y="557" width="25" height="25" transform="rotate(0,569.5,569.5)"/><rect x="557" y="607" width="25" height="25" transform="rotate(0,569.5,619.5)"/><rect x="582" y="232" width="25" height="25" transform="rotate(0,594.5,244.5)"/><rect x="582" y="357" width="25" height="25" transform="rotate(0,594.5,369.5)"/><rect x="582" y="382" width="25" height="25" transform="rotate(0,594.5,394.5)"/><rect x="582" y="407" width="25" height="25" transform="rotate(0,594.5,419.5)"/><rect x="582" y="457" width="25" height="25" transform="rotate(0,594.5,469.5)"/><rect x="582" y="532" width="25" height="25" transform="rotate(0,594.5,544.5)"/><rect x="607" y="207" width="25" height="25" transform="rotate(0,619.5,219.5)"/><rect x="607" y="257" width="25" height="25" transform="rotate(0,619.5,269.5)"/><rect x="607" y="307" width="25" height="25" transform="rotate(0,619.5,319.5)"/><rect x="607" y="407" width="25" height="25" transform="rotate(0,619.5,419.5)"/><rect x="607" y="432" width="25" height="25" transform="rotate(0,619.5,444.5)"/><rect x="607" y="457" width="25" height="25" transform="rotate(0,619.5,469.5)"/><rect x="607" y="482" width="25" height="25" transform="rotate(0,619.5,494.5)"/><rect x="607" y="582" width="25" height="25" transform="rotate(0,619.5,594.5)"/><rect x="607" y="607" width="25" height="25" transform="rotate(0,619.5,619.5)"/><path clip-rule="evenodd" d="M 7 7v 175h 175v -175zM 32 32h 125v 125h -125z" transform="rotate(0,94.5,94.5)"/><rect x="57" y="57" width="75" height="75" transform="rotate(0,94.5,94.5)"/><path clip-rule="evenodd" d="M 457 7v 175h 175v -175zM 482 32h 125v 125h -125z" transform="rotate(90,544.5,94.5)"/><rect x="507" y="57" width="75" height="75" transform="rotate(90,544.5,94.5)"/><path clip-rule="evenodd" d="M 7 457v 175h 175v -175zM 32 482h 125v 125h -125z" transform="rotate(-90,94.5,544.5)"/><rect x="57" y="507" width="75" height="75" transform="rotate(-90,94.5,544.5)"/></clipPath></defs><rect x="0" y="0" height="640" width="640" clip-path="url('#clip-path-background-color')" fill="#ffffff"/><rect x="7" y="7" height="625" width="625" clip-path="url('#clip-path-dot-color')" fill="#000000"/><image href="/assets/images/android-chrome-512x512.png" x="257" y="257" width="125px" height="125px"/></svg>