<svg width="184" height="48" viewBox="0 0 184 48" fill="none" xmlns="http://www.w3.org/2000/svg">
<path d="M50.4648 25.9531L49.1953 25.8164C49.4557 24.4622 49.638 23.1146 49.7422 21.7734C52.2812 20.6276 54.5729 20.0547 56.6172 20.0547C57.5026 20.0547 58.3034 20.1849 59.0195 20.4453C59.7357 20.6927 60.3021 21.0443 60.7188 21.5C61.1354 21.9427 61.4479 22.4766 61.6562 23.1016C61.8776 23.7266 61.9883 24.7227 61.9883 26.0898L61.8125 34.1562C61.8125 35.25 61.9362 35.9661 62.1836 36.3047C62.431 36.6432 62.75 36.8125 63.1406 36.8125C63.6094 36.8125 64.3451 36.4609 65.3477 35.7578L65.9531 36.5586C64.1172 38.1992 63.1146 39.0716 62.9453 39.1758C62.5807 39.3841 62.125 39.4883 61.5781 39.4883C60.7318 39.4883 60.0742 39.2799 59.6055 38.8633C59.1497 38.4336 58.8438 37.7174 58.6875 36.7148C57.125 37.9258 55.9661 38.6875 55.2109 39C54.4557 39.3255 53.6354 39.4883 52.75 39.4883C51.3047 39.4883 50.1393 39.0521 49.2539 38.1797C48.3685 37.2943 47.9258 36.168 47.9258 34.8008C47.9258 33.9674 48.082 33.2188 48.3945 32.5547C48.707 31.8776 49.1562 31.2852 49.7422 30.7773C50.1979 30.3997 50.9661 29.944 52.0469 29.4102C54.5859 28.1732 56.7995 27.1771 58.6875 26.4219C58.6224 24.5859 58.3164 23.3685 57.7695 22.7695C57.2227 22.1706 56.3828 21.8711 55.25 21.8711C54.1823 21.8711 53.2643 22.2031 52.4961 22.8672C51.7409 23.5182 51.0638 24.5469 50.4648 25.9531ZM58.6875 28.1211C55.2891 29.6445 53.2318 30.7578 52.5156 31.4609C51.8125 32.151 51.4609 32.9844 51.4609 33.9609C51.4609 34.9375 51.7279 35.7188 52.2617 36.3047C52.7956 36.8906 53.4206 37.1836 54.1367 37.1836C54.8789 37.1836 55.6797 36.9427 56.5391 36.4609C57.4115 35.9661 57.9844 35.4128 58.2578 34.8008C58.5443 34.1888 58.6875 33.0755 58.6875 31.4609V28.1211ZM67.1344 23.6875V22.5742C69.5693 21.9622 71.6461 21.1224 73.3648 20.0547L73.8727 20.4258C73.6643 21.6888 73.5406 23.069 73.5016 24.5664C75.0771 22.6523 76.1773 21.4805 76.8023 21.0508C77.4273 20.6211 78.163 20.4062 79.0094 20.4062C79.5693 20.4062 80.1943 20.543 80.8844 20.8164C80.5979 22.1445 80.3635 23.4987 80.1812 24.8789H79.2047C79.0875 24.2539 78.8922 23.8047 78.6187 23.5312C78.3453 23.2448 78.0393 23.1016 77.7008 23.1016C77.1799 23.1016 76.6201 23.3424 76.0211 23.8242C75.1357 24.5404 74.4911 25.3672 74.0875 26.3047C73.6969 27.2292 73.5016 28.5443 73.5016 30.25C73.5016 33.2708 73.5862 35.3021 73.7555 36.3438C73.8206 36.7344 73.9964 37.0404 74.2828 37.2617C74.5823 37.4831 75.5068 37.7695 77.0562 38.1211V39.2148C75.4286 39.0716 73.9508 39 72.6227 39C71.5159 39 69.6865 39.0716 67.1344 39.2148V38.1211C68.9182 37.6784 69.9208 37.3398 70.1422 37.1055C70.3766 36.8581 70.4937 36.207 70.4937 35.1523L70.5328 30.9141C70.5328 26.7604 70.4937 24.5273 70.4156 24.2148C70.2854 23.694 69.9208 23.4336 69.3219 23.4336C68.9833 23.4336 68.4234 23.4987 67.6422 23.6289C67.525 23.6419 67.3557 23.6615 67.1344 23.6875ZM87.6906 15.7578H88.8234L88.3742 20.7383L93.7844 20.6797L93.9406 20.9922C93.6151 21.526 93.3156 22.099 93.0422 22.7109C91.5057 22.6328 89.9497 22.5807 88.3742 22.5547L88.1984 32.5938V32.7109C88.1984 34.2604 88.3677 35.3802 88.7062 36.0703C89.0578 36.7474 89.6503 37.0859 90.4836 37.0859C91.1737 37.0859 92.0852 36.793 93.218 36.207L93.7844 37.3203C92.3651 38.2057 91.2844 38.7852 90.5422 39.0586C89.8 39.3451 89.1555 39.4883 88.6086 39.4883C87.7492 39.4883 87.0201 39.2669 86.4211 38.8242C85.8221 38.3685 85.425 37.7435 85.2297 36.9492C85.1125 36.5065 85.0539 35.1523 85.0539 32.8867C85.0539 30.4648 85.1255 27.0208 85.2687 22.5547C84.3573 22.5807 83.4133 22.6328 82.4367 22.7109V21.6562C83.5305 21.1615 84.4745 20.4844 85.2687 19.625C86.076 18.7656 86.8833 17.4766 87.6906 15.7578ZM116.596 14.1367V13.0625C118.002 12.6589 119.024 12.3333 119.662 12.0859C120.301 11.8255 121.381 11.2982 122.905 10.5039L123.393 10.8945C123.107 13.9154 122.963 19.5404 122.963 27.7695C122.963 32.3268 123.022 34.8659 123.139 35.3867C123.256 35.9076 123.647 36.168 124.311 36.168C124.702 36.168 125.392 36.0833 126.381 35.9141V36.9688C123.66 37.776 121.551 38.6159 120.053 39.4883L119.565 39.1172C119.721 38.1406 119.819 37.1641 119.858 36.1875C118.23 37.6589 117.032 38.5768 116.264 38.9414C115.509 39.306 114.604 39.4883 113.549 39.4883C111.557 39.4883 109.903 38.7461 108.588 37.2617C107.286 35.7643 106.635 33.6484 106.635 30.9141C106.635 29.0391 106.954 27.4245 107.592 26.0703C108.074 25.0286 108.771 24.0456 109.682 23.1211C110.593 22.1836 111.609 21.4414 112.729 20.8945C113.862 20.3346 114.995 20.0547 116.127 20.0547C116.648 20.0547 117.228 20.1198 117.866 20.25C118.504 20.3802 119.2 20.5755 119.955 20.8359C119.982 20.1849 119.995 19.8073 119.995 19.7031C119.995 16.6432 119.936 14.9505 119.819 14.625C119.662 14.1432 119.233 13.9023 118.53 13.9023C118.295 13.9023 117.879 13.9479 117.28 14.0391C117.123 14.0651 116.896 14.0977 116.596 14.1367ZM119.955 29.2734C119.955 26.7083 119.897 25.224 119.78 24.8203C119.558 24.0391 119.044 23.3815 118.237 22.8477C117.442 22.3008 116.453 22.0273 115.268 22.0273C113.784 22.0273 112.521 22.6458 111.479 23.8828C110.437 25.1068 109.916 26.9102 109.916 29.293C109.916 31.7409 110.444 33.6094 111.498 34.8984C112.553 36.1745 113.816 36.8125 115.287 36.8125C116.264 36.8125 117.156 36.5326 117.963 35.9727C118.771 35.4128 119.304 34.7357 119.565 33.9414C119.825 33.1471 119.955 31.5911 119.955 29.2734ZM128.598 30.0938C128.598 26.9427 129.49 24.4492 131.273 22.6133C133.057 20.7773 135.401 19.8594 138.305 19.8594C141.052 19.8594 143.227 20.6862 144.828 22.3398C146.443 23.9935 147.25 26.3047 147.25 29.2734C147.25 32.4766 146.345 35.0156 144.535 36.8906C142.738 38.7526 140.408 39.6836 137.543 39.6836C134.77 39.6836 132.582 38.8503 130.98 37.1836C129.392 35.5169 128.598 33.1536 128.598 30.0938ZM132.348 28.3945C132.348 30.5299 132.484 32.1055 132.758 33.1211C133.188 34.7617 133.865 35.9987 134.789 36.832C135.727 37.6523 136.814 38.0625 138.051 38.0625C139.652 38.0625 140.967 37.457 141.996 36.2461C143.025 35.0221 143.539 33.0625 143.539 30.3672C143.539 27.3464 142.953 25.1133 141.781 23.668C140.622 22.2096 139.255 21.4805 137.68 21.4805C136.117 21.4805 134.835 22.0534 133.832 23.1992C132.842 24.332 132.348 26.0638 132.348 28.3945ZM165.17 26.6172L163.861 26.5195C163.809 24.8789 163.392 23.668 162.611 22.8867C161.843 22.0924 160.788 21.6953 159.447 21.6953C158.483 21.6953 157.559 21.9622 156.673 22.4961C155.788 23.0169 155.091 23.8763 154.584 25.0742C154.089 26.2591 153.841 27.6068 153.841 29.1172C153.841 31.5391 154.427 33.4336 155.599 34.8008C156.784 36.1549 158.151 36.832 159.701 36.832C161.328 36.832 163.288 36.1875 165.58 34.8984L166.302 36.0703C164.258 37.5807 162.559 38.6419 161.205 39.2539C160.554 39.5404 159.759 39.6836 158.822 39.6836C156.543 39.6836 154.701 39.0195 153.295 37.6914C151.433 35.9336 150.502 33.5508 150.502 30.543C150.502 27.431 151.478 24.8724 153.431 22.8672C155.384 20.862 157.793 19.8594 160.658 19.8594C162.611 19.8594 164.492 20.3607 166.302 21.3633C166.211 21.806 166.081 22.3789 165.912 23.082C165.69 24.0065 165.443 25.1849 165.17 26.6172ZM180.394 25.3672L179.027 25.25C178.935 24.1042 178.525 23.1992 177.796 22.5352C177.08 21.8711 176.182 21.5391 175.101 21.5391C174.163 21.5391 173.415 21.793 172.855 22.3008C172.308 22.7956 172.034 23.3685 172.034 24.0195C172.034 24.5924 172.249 25.1263 172.679 25.6211C173.278 26.2982 174.567 27.125 176.546 28.1016C178.525 29.0781 179.86 29.9961 180.55 30.8555C181.227 31.7279 181.566 32.7174 181.566 33.8242C181.566 35.4128 180.928 36.7865 179.652 37.9453C178.376 39.1042 176.631 39.6836 174.417 39.6836C172.816 39.6836 171.045 39.3255 169.105 38.6094C169.313 36.7734 169.417 35.0938 169.417 33.5703H170.765C171.142 35.1068 171.715 36.207 172.484 36.8711C173.265 37.5352 174.222 37.8672 175.355 37.8672C176.37 37.8672 177.158 37.6133 177.718 37.1055C178.278 36.5846 178.558 35.9271 178.558 35.1328C178.558 34.3646 178.284 33.6549 177.738 33.0039C177.178 32.3529 175.934 31.5456 174.007 30.582C172.08 29.6185 170.797 28.7461 170.159 27.9648C169.508 27.1836 169.183 26.2982 169.183 25.3086C169.183 23.9023 169.814 22.6458 171.077 21.5391C172.353 20.4193 174.046 19.8594 176.155 19.8594C177.627 19.8594 179.215 20.2044 180.921 20.8945C180.739 21.9492 180.563 23.4401 180.394 25.3672Z" fill="#333333"/>
<path d="M19.976 40L24.816 12.5H33.176L31.196 23.72H31.548C31.636 23.368 31.7533 22.9867 31.9 22.576C32.0467 22.1653 32.1933 21.8427 32.34 21.608L37.884 12.5H46.904L38.28 26.008L42.284 40H33.264L30.844 30.144C30.756 29.8213 30.712 29.396 30.712 28.868C30.712 28.7213 30.712 28.5747 30.712 28.428C30.7413 28.2813 30.756 28.1493 30.756 28.032H30.404L28.336 40H19.976ZM23.1 14.48L4.488 12.5H23.452L23.1 14.48ZM22.396 18.704L3.74 16.724H22.704L22.396 18.704ZM21.648 22.928L2.992 20.948H22L21.648 22.928ZM20.9 27.152L2.244 25.172H21.252L20.9 27.152ZM20.152 31.376L1.496 29.396H20.504L20.152 31.376ZM19.404 35.6L0.748 33.62H19.756L19.404 35.6ZM18.656 39.868L0 37.888H19.008L18.656 39.868Z" fill="#3A67EA"/>
</svg>
