<svg width="150" height="151" viewBox="0 0 150 151" fill="none" xmlns="http://www.w3.org/2000/svg">
<path d="M120 1H30C13.4315 1 0 14.4315 0 31V121C0 137.569 13.4315 151 30 151H120C136.569 151 150 137.569 150 121V31C150 14.4315 136.569 1 120 1Z" fill="#A1A1A1"/>
<path opacity="0.95" d="M57.44 109.5L69.54 40.75H90.44L85.49 68.8H86.37C86.59 67.92 86.8833 66.9667 87.25 65.94C87.6167 64.9133 87.9833 64.1067 88.35 63.52L102.21 40.75H124.76L103.2 74.52L113.21 109.5H90.66L84.61 84.86C84.39 84.0533 84.28 82.99 84.28 81.67C84.28 81.3033 84.28 80.9367 84.28 80.57C84.3533 80.2033 84.39 79.8733 84.39 79.58H83.51L78.34 109.5H57.44ZM65.25 45.7L18.72 40.75H66.13L65.25 45.7ZM63.49 56.26L16.85 51.31H64.26L63.49 56.26ZM61.62 66.82L14.98 61.87H62.5L61.62 66.82ZM59.75 77.38L13.11 72.43H60.63L59.75 77.38ZM57.88 87.94L11.24 82.99H58.76L57.88 87.94ZM56.01 98.5L9.37 93.55H56.89L56.01 98.5ZM54.14 109.17L7.5 104.22H55.02L54.14 109.17Z" fill="white"/>
</svg>
